# xmcd
#
# Track frame offsets: 
#        150
#        14100
#        32193
#        50053
#        67938
#        87359
#        105318
#        118205
#        135954
#        156242
#        184084
#        197102
#        210794
#        222990
#        241600
#        256243
#        271638
#        297595
#        317154
#        334278
#        345099
#
# Disc length: 4780 seconds
#
# Revision: 1
# Processed by: cddbd v1.5.2PL0 Copyright (c) Steve Scherf et al.
# Submitted via: ExactAudioCopy v1.3
#
DISCID=3012aa15
DTITLE=Various Artist - Akella Presents - Country Blues - Vol.30  Cd2
DTITLE=New!
DYEAR=2013
DGENRE=Country
TTITLE0=Gordie Tentrees - Alfred
TTITLE1=Walter Trout - All My Life
TTITLE2=Vince Gill - She Never Makes Me Cry
TTITLE3=Hans Thessink - Cry Cry Cry
TTITLE4=Mark Knopfler - We Can Get Wild
TTITLE5=Big House - Hey Jenny
TTITLE6=The Blue Hawaiians - Searchin' For Da Cat
TTITLE7=Tab Benoit - Sac-Au-Lait Fishing
TTITLE8=Greg Harris - Line In The Water
TTITLE9=John Mellencamp - No One Cares About Me
TTITLE10=Chris Isaak - Only The Lonely
TTITLE11=The Radio Kings - She Belongs To Me
TTITLE12=Brian Kramer - Ada
TTITLE13=Big Ed Sullivan - One Piece At A Time
TTITLE14=John Campbelljohn - Martha Mae
TTITLE15=Danny Shirley - Cheap Thrills
TTITLE16=The Underdogs - Bye-Bye
TTITLE17=John Fogerty - I Saw It On T.V.
TTITLE18=Dire Straits - How Long
TTITLE19=Albert Lee and Hogan's Heroes - Take Your Time
TTITLE20=Delta Moon - You Got To Move
EXTD=
EXTT0=
EXTT1=
EXTT2=
EXTT3=
EXTT4=
EXTT5=
EXTT6=
EXTT7=
EXTT8=
EXTT9=
EXTT10=
EXTT11=
EXTT12=
EXTT13=
EXTT14=
EXTT15=
EXTT16=
EXTT17=
EXTT18=
EXTT19=
EXTT20=
PLAYORDER=
